<svg width="67.000000" height="56.000000" viewBox="0 0 67 56" fill="none" xmlns="http://www.w3.org/2000/svg" xmlns:xlink="http://www.w3.org/1999/xlink">
	<desc>
			Created with Pixso.
	</desc>
	<defs/>
	<path id="“" d="M26.4634 52.0327C23.6406 54.6776 19.9105 56 15.2732 56C10.5349 56 6.80493 54.525 4.08289 51.5749Q4.01978 51.5065 3.95764 51.4372Q0 47.0248 0 39.0627Q0 33.5695 2.57068 26.5504Q5.14148 19.5313 9.45117 12.5123Q13.761 5.49319 19.3561 0L31 0Q28.4293 6.10354 27.0682 11.139Q25.7073 16.1744 25.7073 20.2943Q25.7073 25.0245 26.9171 28.3815C27.7236 30.6194 28.5553 32.8065 29.4122 34.9428Q30.6975 38.1471 30.6975 42.5722Q30.6975 44.8453 29.9725 46.8571Q28.9454 49.707 26.4634 52.0327ZM51.2732 56C55.9105 56 59.6406 54.6776 62.4634 52.0327Q64.9454 49.707 65.9725 46.8571Q66.6975 44.8453 66.6975 42.5722C66.6975 39.6222 66.269 37.079 65.4122 34.9428Q64.1268 31.7384 62.9171 28.3815Q61.7073 25.0245 61.7073 20.2943C61.7073 17.5477 62.161 14.4959 63.0682 11.139Q64.4293 6.10354 67 0L55.3561 0Q49.761 5.49319 45.4512 12.5123Q41.1415 19.5313 38.5707 26.5504Q36 33.5695 36 39.0627Q36 47.0248 39.9576 51.4372Q39.9698 51.4508 39.9821 51.4644Q40.0322 51.52 40.0829 51.5749Q41.1108 52.689 42.3306 53.5226Q45.9552 56 51.2732 56Z" clip-rule="evenodd" fill="#2C6269" fill-opacity="1.000000" fill-rule="evenodd"/>
</svg>
